<svg id="Layer_1" data-name="Layer 1" xmlns="http://www.w3.org/2000/svg" viewBox="0 0 280 300"><defs><style>.cls-1{fill:#090;}</style></defs><path class="cls-1" d="M80.14,170a4.18,4.18,0,0,1-2.94-1.21L52.59,144.15v21.68a4.16,4.16,0,0,1-8.32,0V134.11a4.15,4.15,0,0,1,7.1-2.94L76,155.78V134.11a4.16,4.16,0,1,1,8.31,0v31.72A4.17,4.17,0,0,1,80.14,170m19.27-40-1.15,2.13-8.84,16.07-1.14,2,1.14,2,8.84,15.55,1.2,2.13H122.6l1.14-2.34,6.6-13.31,3-6H126.6l-16.9,0a4.16,4.16,0,1,0,0,8.32l10.19-.05-2.49,5H104.29l-6.5-11.44,6.56-11.85h13.93l3.25,6.66h8.38l-5.28-12.64L123.48,130H99.41m42.14-.05a4.31,4.31,0,0,0-4.11,4.21V145h8.32V134.15a4.32,4.32,0,0,0-4.21-4.21m13.33,40.12a4.15,4.15,0,0,1-4.16-4.15V134.19a4.16,4.16,0,0,1,8.32,0v21.67l24.62-24.62a4.16,4.16,0,0,1,7.1,2.95v31.72a4.16,4.16,0,0,1-8.32,0V144.23l-24.62,24.62a4.11,4.11,0,0,1-2.94,1.21M221.57,150l12.94-12.89a4.16,4.16,0,1,0-5.87-5.89l-13,12.91-13-12.91a4.16,4.16,0,0,0-5.88,5.89L209.78,150l-12.9,12.86a4.16,4.16,0,1,0,5.87,5.89l12.93-12.87,12.92,12.87a4.16,4.16,0,1,0,5.87-5.89L221.57,150m-80,19.94a4.33,4.33,0,0,1-4.11-4.21V148.32h8.32v17.42a4.34,4.34,0,0,1-4.21,4.21"/></svg>